<svg class="fill-current inline" height="28" viewBox="0 0 27 28" width="27" xmlns="http://www.w3.org/2000/svg">
    <g>
        <path
                d="m20.419 12.371c-.7672726.7719606-1.1507036 1.8456406-1.046 2.929l-.018-.018c.1076182 1.2748854-.352247 2.5323804-1.2569333 3.4370667s-2.1621813 1.3645515-3.4370667 1.2569333l.018.018c-1.5435943-.1436721-3.0115496.6959556-3.6702944 2.0993016-.6587449 1.4033461-.3668293 3.069075.7298696 4.1647832 1.0966988 1.0957082 2.7626909 1.3861182 4.165441.7261054 1.4027502-.6600129 2.2410509-2.1287264 2.0959838-3.6721902l.019.018c-.1076182-1.2748854.352247-2.5323804 1.2569333-3.4370667s2.1621813-1.3645515 3.4370667-1.2569333l-.019-.018c1.6964586.1525656 3.2750261-.8818408 3.8123604-2.4981699.5373342-1.6163292-.107726-3.3899608-1.5578694-4.2834551-1.4501435-.8934944-3.3244079-.6721245-4.526491.534625z" />
        <path
                d="m13.042 17.636-.019-.018c1.0840461.1092294 2.1598469-.2741065 2.9305553-1.0442336.7707084-.770127 1.1548561-1.8456381 1.0464447-2.9297664l.019.018c-.1076182-1.2748854.352247-2.5323804 1.2569333-3.4370667.9046863-.90468627 2.1621813-1.36455147 3.4370667-1.2569333l-.019-.018c1.5437265.14497146 3.0125722-.69373762 3.6723214-2.0968909.6597491-1.40315329.3686878-3.06935375-.7276945-4.16573601-1.0963823-1.09638225-2.7625827-1.38744363-4.165736-.72769446-1.4031533.65974918-2.2418624 2.12859491-2.0968909 3.67232137l-.018-.019c.107976 1.27497519-.3517733 2.53268501-1.2565441 3.43745585-.9047709.90477084-2.1624807 1.36452015-3.4374559 1.25654415l.018.019c-1.0840461-.1092294-2.1598469.2741065-2.9305553 1.0442336-.77070838.770127-1.15485605 1.8456381-1.0464447 2.9297664l-.018-.018c.10726069 1.2747957-.3527203 2.5320761-1.2573221 3.4366779-.90460179.9046018-2.16188225 1.3645828-3.4366779 1.2573221l.018.018c-1.54372646-.1449715-3.01257219.6937376-3.67232137 2.0968909-.65974917 1.4031533-.36868779 3.0693537.72769446 4.165736 1.09638226 1.0963823 2.76258272 1.3874436 4.16573601.7276945 1.40315328-.6597492 2.24186236-2.1285949 2.0968909-3.6723214l.019.018c-.10761817-1.2748854.35224703-2.5323804 1.2569333-3.4370667.9046863-.9046863 2.1621813-1.3645515 3.4370667-1.2569333z" />
        <path
                d="m6.34 15.629c.76739358-.7718335 1.15053379-1.845726 1.045-2.929l.019.018c-.10770064-1.2752631.35242319-2.5331269 1.25757322-3.43789139.90515002-.90476452 2.16320968-1.36435249 3.43842678-1.25610861l-.019-.018c1.5431882.14457018 3.0113272-.69406435 3.6706744-2.09677298.6593471-1.40270864.3683039-3.06825178-.7276729-4.16422856-1.0959767-1.09597678-2.7615199-1.38702-4.1642285-.72767283-1.40270865.65934718-2.24134318 2.12748622-2.096773 3.67067437l-.018-.018c.10761817 1.27488541-.35224703 2.53238043-1.2569333 3.4370667s-2.16218129 1.36455147-3.4370667 1.2569333l.018.018c-1.69639698-.15213074-3.27463341.8825426-3.81164846 2.4988722s.10825125 3.3897474 1.55840295 4.2830371c1.45015171.8932897 3.32427143.6718072 4.52624551-.5349093z" />
    </g>
</svg>