<svg height="26" viewBox="0 0 15 26" width="15" xmlns="http://www.w3.org/2000/svg"><path d="m9.140625 26h-4.1636658c-.69546506 0-1.26119992-.5657349-1.26119992-1.2612v-9.3913574h-2.42916868c-.69546511 0-1.26119997-.5659332-1.26119997-1.2611999v-4.0242157c0-.6954651.56573486-1.26119996 1.26119997-1.26119996h2.42916868v-2.01518251c0-1.99812316.62742616-3.69810487 1.81423952-4.91586306 1.19216917-1.22331234 2.85823058-1.86978147 4.8180694-1.86978147l3.1754151.00515745c.6942749.00119021 1.2590179.56692507 1.2590179 1.26119997v3.73638916c0 .69546512-.5655365 1.26119993-1.2608032 1.26119993l-2.13797.00079351c-.6520233 0-.8180542.130722-.8535614.17079161-.0585174.06645199-.1281433.25430295-.1281433.7730255v1.59207156h2.9589996c.2227631 0 .4385834.05494688.624054.158493.4001007.22355653.6488495.64627078.6488495 1.10310371l-.0015869 4.0242156c0 .6950684-.5657349 1.2608033-1.2612 1.2608033h-2.9691162v9.3915557c0 .6954651-.56593324 1.2612-1.2613983 1.2612zm-3.90063477-1.524231h3.63760374v-9.8106994c0-.4643708.37788395-.8420563.84205631-.8420563h3.38845822l.0013886-3.4979553h-3.39004517c-.46417241 0-.84185796-.37768555-.84185796-.84205627v-2.2744446c0-.59548953.06050114-1.27270508.50999452-1.78170774.54312136-.61532595 1.39906311-.68634038 1.99574281-.68634038l1.874939-.00079341v-3.2107239l-2.9113923-.00476074c-3.14962762 0-5.10688777 2.01617431-5.10688777 5.26141357v2.6973572c0 .46417232-.37768554.84205627-.84185791.84205627h-2.84851074v3.4979553h2.84851074c.46417237 0 .84185791.3776855.84185791.8420563z"/></svg>