<svg height="26" viewBox="0 0 26 26" width="26" xmlns="http://www.w3.org/2000/svg"><g><path d="m18.9620361 0h-11.92407223c-3.88079834 0-7.03796387 3.15716553-7.03796387 7.03796387v11.92427063c0 3.8806 3.15716553 7.0377655 7.03796387 7.0377655h11.92427063c3.8806 0 7.0377655-3.1571655 7.0377655-7.0377655v-11.92427063c0-3.88079834-3.1571655-7.03796387-7.0379639-7.03796387zm5.5137329 18.9622345c0 3.0401306-2.4734039 5.5135345-5.5137329 5.5135345h-11.92407223c-3.04032899 0-5.51373291-2.4734039-5.51373291-5.5135345v-11.92427063c0-3.04032899 2.47340392-5.51373291 5.51373291-5.51373291h11.92427063c3.0401306 0 5.5135345 2.47340392 5.5135345 5.51373291z"/><path d="m13 5.89082335c-3.92007444 0-7.10917665 3.18910221-7.10917665 7.10917665 0 3.9200744 3.18910221 7.1091766 7.10917665 7.1091766 3.9200744 0 7.1091766-3.1891022 7.1091766-7.1091766 0-3.92007444-3.1891022-7.10917665-7.1091766-7.10917665zm0 12.69412235c-3.07940674 0-5.58494569-2.5053406-5.58494569-5.5849457 0-3.07940674 2.50553895-5.58494569 5.58494569-5.58494569 3.0796051 0 5.5849457 2.50553895 5.5849457 5.58494569 0 3.0796051-2.5053406 5.5849457-5.5849457 5.5849457z"/><path d="m20.2791748 3.36604308c-1.1584473 0-2.1006775.9424286-2.1006775 2.10067751 0 1.15844727.9422302 2.10087587 2.1006775 2.10087587s2.1008759-.9424286 2.1008759-2.10087587c0-1.15844726-.9424286-2.10067751-2.1008759-2.10067751zm0 2.67712402c-.3177795 0-.5764465-.25866699-.5764465-.57644651 0-.31797791.258667-.57644655.5764465-.57644655.3179779 0 .5766449.25846864.5766449.57644655 0 .31777952-.258667.57644651-.5766449.57644651z"/></g></svg>