<svg height="22" viewBox="0 0 26 22" width="26" xmlns="http://www.w3.org/2000/svg"><path d="m9.87373598 21.4746284c-4.33095761 0-7.75398999-.7566703-9.39166055-2.075597l-.03187443-.0257371-.0289047-.0289047c-.38902594-.3892239-.5165235-.8998081-.34943042-1.4006914l.01524426-.0415753c.20272904-.5070206.69945478-.8483339 1.23775584-.8515016 1.10788256-.0192038 2.0771808-.1512548 2.95679522-.4076358-1.40306715-.6525341-2.3777108-1.7823922-2.95758713-3.417687-.1950079-.5099903-.02672698-1.0754143.42268216-1.4125701.11086744-.0833485.23618724-.1463054.36883225-.1884746-.77963575-.9000061-1.35555253-1.92414415-1.67805805-3.00727952l-.01009682-.03365616-.00692922-.03444813c-.10948159-.54780393.13541666-1.11105019.58423186-1.35357272.18827664-.10809573.39278752-.1641234.59809026-.16887486-.22133896-.47673002-.38229472-.96613061-.47771989-1.45850087-.26489403-1.3644615-.04632678-2.73228861.64936647-4.06546968l.16095576-.32191152c.12888342-.25756882.37516753-.43852036.65906736-.48464912.28389988-.0459308.5749269.04791055.77824989.25123354l.29320479.29360076c2.31633772 2.42839301 4.39114279 3.58062254 7.97829861 4.3689693.1601639-1.3769341.7554825-2.65685916 1.7158717-3.6641691 1.1429246-1.19855631 2.6691338-1.87108615 4.2974994-1.89405155h.0106908c1.1880635 0 2.6618086.67827123 3.5531037 1.15658507.7645894-.25024367 1.6857791-.63768584 2.6416149-1.04730144.4472313-.20985624.9985989-.11383712 1.3502071.23777106.344679.34467896.4403021.83071394.2573709 1.30308848-.0694902.19342408-.1482853.3832846-.2359893.56898754.1308632.05998723.2506396.14135602.3518061.24252258.3058754.30587535.433373.78458512.3246833 1.21973988l-.0116807.0413773c-.3662586 1.18034232-1.0698709 2.14172147-2.0003655 2.74515714-.1554124 8.27566102-6.3873508 14.95522662-14.02532592 14.95522662zm-7.93236778-2.923139c1.54323522.8730812 4.48419223 1.4012853 7.93236778 1.4012853 3.31513462 0 6.44357642-1.4232608 8.80881462-4.0076602 2.3846399-2.6055829 3.6978252-6.06563714 3.6978252-9.74287278v-.04137731c0-.33299832.1833273-.63689387.4783139-.79329618.5984862-.3169621 1.0831353-.85684698 1.3983157-1.54719483-.3250793.05127621-.6555038-.07919103-.8580349-.3512122-.2353953-.31617019-.237969-.74320787-.0065333-1.06214972.1249239-.17224052.2381671-.35141022.3391357-.53671724-.8253686.34665876-1.6091618.65748354-2.2896108.86397417-.247274.0748355-.5228588.04553482-.7487512-.08057689-1.2114248-.67490557-2.3396991-1.07838391-3.0199501-1.08036366-2.5101577.03840763-4.5511086 2.18824621-4.5511086 4.7948191 0 .26944747-.1195785.52206687-.327653.69331746-.2082723.17105264-.4791057.23955291-.7436037.18728682-4.13614772-.81487578-6.58711014-2.03679337-9.13587357-4.5980294-.36526863.87525889-.46504933 1.7568531-.29617446 2.62736052.17125059.88179213.626797 1.76536609 1.31754082 2.55509871.26251825.29973803.29736231.7285575.08671416 1.06690118-.20985624.33715579-.60878103.49474599-.99226365.39199561-.29973803-.08037892-.57532283-.18590096-.83665324-.32151559.53236171 1.15638703 1.44800802 2.22586193 2.59904971 3.01460463.33359222.2286641.47296843.6549099.33913559 1.0366107-.13403081.3822946-.50840644.6283808-.91307261.5982882-.44089609-.0326663-.83150585-.1164108-1.19103314-.2575688.64540692 1.3143732 1.67667213 2.0375852 3.26544227 2.313962.37833513.0659265.67292577.3646746.73311096.7434057.0603832.3787312-.12710159.7540967-.46623722.9340583-1.35416667.7178667-2.83424703 1.1031311-4.61921292 1.1975664z"/></svg>